<svg width="476" height="396" viewBox="0 0 476 396" fill="none" xmlns="http://www.w3.org/2000/svg">
<path fill-rule="evenodd" clip-rule="evenodd" d="M476 494C407.793 494 352.5 438.707 352.5 370.5C420.707 370.5 476 425.793 476 494ZM229 494C297.207 494 352.5 438.707 352.5 370.5C420.707 370.5 476 315.207 476 247C476 178.793 420.707 123.5 352.5 123.5C420.707 123.5 476 68.2066 476 0C407.793 0 352.5 55.2934 352.5 123.5C352.5 55.2934 297.207 0 229 0C160.793 0 105.5 55.2934 105.5 123.5C105.5 55.2934 50.2066 0 -18 0C-18 68.2066 37.2934 123.5 105.5 123.5C37.2934 123.5 -18 178.793 -18 247C-18 315.207 37.2934 370.5 105.5 370.5C37.2934 370.5 -18 425.793 -18 494C50.2066 494 105.5 438.707 105.5 370.5C105.5 438.707 160.793 494 229 494ZM105.5 123.5C105.5 191.707 160.793 247 229 247C229 178.793 173.707 123.5 105.5 123.5ZM229 247C160.793 247 105.5 302.293 105.5 370.5C105.5 302.293 50.2066 247 -18 247C50.2066 247 105.5 191.707 105.5 123.5C173.707 123.5 229 68.2066 229 0C229 68.2066 284.293 123.5 352.5 123.5C284.293 123.5 229 178.793 229 247ZM229 247C297.207 247 352.5 191.707 352.5 123.5C352.5 191.707 407.793 247 476 247C407.793 247 352.5 302.293 352.5 370.5C352.5 302.293 297.207 247 229 247ZM229 247C229 315.207 173.707 370.5 105.5 370.5C173.707 370.5 229 425.793 229 494C229 425.793 284.293 370.5 352.5 370.5C284.293 370.5 229 315.207 229 247Z" fill="url(#paint0_linear_387_1723)"/>
<defs>
<linearGradient id="paint0_linear_387_1723" x1="229" y1="494" x2="229" y2="0" gradientUnits="userSpaceOnUse">
<stop stop-color="#B8DBFC"/>
<stop offset="1" stop-color="#F8FBFE"/>
</linearGradient>
</defs>
</svg>
