<svg width="327" height="306" viewBox="0 0 327 306" fill="none" xmlns="http://www.w3.org/2000/svg">
<path d="M53.5 -243L60.8155 -38.114L110.571 -237.002L75.1306 -35.0715L165.15 -219.268L88.4988 -29.1195L214.848 -190.575L100.338 -20.5183L257.492 -152.176L110.129 -9.64345L291.225 -105.75L117.445 3.02939L314.566 -53.3252L121.969 16.9465L326.496 2.80676L123.498 31.5L326.496 60.1935L121.969 46.054L314.566 116.326L117.445 59.9711L291.225 168.75L110.129 72.6448L257.492 215.176L100.338 83.5177L214.848 253.576L88.4988 92.1206L165.15 282.269L75.1306 98.0717L110.571 300.002L60.8155 101.113L53.5 306L46.1832 101.113L-3.57182 300.002L31.8697 98.0717L-58.1493 282.269L18.5013 92.1206L-107.847 253.576L6.66264 83.5177L-150.493 215.176L-3.12906 72.6448L-184.224 168.75L-10.4459 59.9711L-207.565 116.326L-14.968 46.054L-219.496 60.1935L-16.4975 31.5L-219.496 2.80676L-14.968 16.9465L-207.565 -53.3252L-10.4459 3.02939L-184.224 -105.75L-3.12906 -9.64345L-150.493 -152.176L6.66264 -20.5183L-107.847 -190.575L18.5013 -29.1195L-58.1493 -219.268L31.8697 -35.0715L-3.57182 -237.002L46.1832 -38.114L53.5 -243Z" fill="url(#paint0_linear_387_1717)"/>
<defs>
<linearGradient id="paint0_linear_387_1717" x1="53.5" y1="-243" x2="53.5" y2="306" gradientUnits="userSpaceOnUse">
<stop stop-color="#B8DBFC"/>
<stop offset="1" stop-color="#F8FBFE"/>
</linearGradient>
</defs>
</svg>
