<svg width="411" height="484" viewBox="0 0 411 484" fill="none" xmlns="http://www.w3.org/2000/svg">
<path opacity="0.5" fill-rule="evenodd" clip-rule="evenodd" d="M234.882 2.0805C233.001 -1.05353 228.459 -1.05352 226.58 2.0805L180.933 78.186C179.691 80.2577 177.111 81.0958 174.888 80.1503L93.2255 45.41C89.8626 43.9793 86.1881 46.649 86.5095 50.2892L94.3145 138.69C94.5269 141.097 92.9326 143.291 90.5782 143.833L4.0922 163.727C0.530708 164.546 -0.87282 168.866 1.52695 171.622L59.8021 238.552C61.3884 240.374 61.3884 243.087 59.8021 244.909L1.52695 311.839C-0.87282 314.595 0.530708 318.915 4.09222 319.733L90.5782 339.628C92.9326 340.17 94.5269 342.365 94.3145 344.77L86.5095 433.17C86.1881 436.813 89.8626 439.482 93.2255 438.052L174.888 403.31C177.111 402.364 179.691 403.204 180.933 405.275L226.58 481.379C228.459 484.516 233.001 484.513 234.882 481.379L280.528 405.275C281.769 403.204 284.349 402.364 286.573 403.31L368.236 438.052C371.597 439.482 375.273 436.813 374.951 433.17L367.147 344.77C366.934 342.365 368.529 340.17 370.883 339.628L457.369 319.733C460.929 318.915 462.333 314.595 459.934 311.839L401.658 244.909C400.073 243.087 400.073 240.374 401.658 238.552L459.934 171.622C462.333 168.866 460.929 164.546 457.369 163.727L370.883 143.833C368.529 143.291 366.934 141.097 367.147 138.69L374.951 50.2892C375.273 46.649 371.597 43.9793 368.236 45.41L286.573 80.1503C284.349 81.0958 281.769 80.2577 280.528 78.186L234.882 2.0805ZM231 363C297.826 363 352 308.826 352 242C352 175.174 297.826 121 231 121C164.174 121 110 175.174 110 242C110 308.826 164.174 363 231 363Z" fill="url(#paint0_linear_387_1705)"/>
<defs>
<linearGradient id="paint0_linear_387_1705" x1="47.5649" y1="38.4501" x2="246.415" y2="476.612" gradientUnits="userSpaceOnUse">
<stop stop-color="#ACAAFF"/>
<stop offset="1" stop-color="#C0E8FF"/>
</linearGradient>
</defs>
</svg>
