<svg width="339" height="349" viewBox="0 0 339 349" fill="none" xmlns="http://www.w3.org/2000/svg">
<path opacity="0.5" d="M111.709 -51.3444C120.434 -68.2185 144.566 -68.2185 153.29 -51.3444L208.849 56.1095C211.075 60.4154 214.584 63.9239 218.891 66.1503L326.344 121.709C343.219 130.434 343.219 154.566 326.344 163.29L218.891 218.849C214.584 221.075 211.075 224.584 208.849 228.891L153.29 336.344C144.566 353.219 120.434 353.219 111.709 336.344L56.1503 228.891C53.9239 224.584 50.4154 221.075 46.1095 218.849L-61.3444 163.29C-78.2185 154.566 -78.2185 130.434 -61.3444 121.709L46.1095 66.1503C50.4154 63.9239 53.9239 60.4154 56.1503 56.1095L111.709 -51.3444Z" fill="url(#paint0_linear_387_1775)"/>
<defs>
<linearGradient id="paint0_linear_387_1775" x1="132.5" y1="-64" x2="132.5" y2="349" gradientUnits="userSpaceOnUse">
<stop stop-color="#DF99F7"/>
<stop offset="1" stop-color="#FFDBB0"/>
</linearGradient>
</defs>
</svg>
