<svg width="343" height="361" viewBox="0 0 343 361" fill="none" xmlns="http://www.w3.org/2000/svg">
<path d="M171.936 361C166.526 361 161.954 356.877 160.644 351.354C156.468 333.75 148.475 315.028 136.664 295.193C122.67 271.376 102.721 249.285 76.8178 228.916C54.2882 210.994 31.7585 198.772 9.22907 192.252C3.89314 190.709 0 185.729 0 179.905C0 174.194 3.74338 169.272 8.96041 167.704C31.0492 161.066 52.3284 150.29 72.7981 135.375C96.3199 118.14 115.971 97.4574 131.751 73.3281C145.711 51.8333 155.294 30.5745 160.501 9.55219C161.864 4.04491 166.471 0 171.879 0C177.346 0 181.986 4.1345 183.316 9.71686C186.321 22.3195 191.017 35.2192 197.403 48.4153C205.443 64.7105 215.714 80.3788 228.22 95.4206C241.023 110.149 255.315 123.467 271.095 135.375C291.716 150.759 312.679 161.568 333.986 167.8C339.213 169.329 343 174.227 343 179.936C343 185.731 339.098 190.669 333.789 192.202C320.283 196.099 306.381 202.384 292.087 211.053C274.817 221.708 258.739 234.399 243.851 249.128C228.965 263.543 216.757 278.741 207.229 294.722C195.395 314.599 187.393 333.465 183.225 351.323C181.932 356.863 177.353 361 171.936 361Z" fill="url(#paint0_linear_387_1711)"/>
<defs>
<linearGradient id="paint0_linear_387_1711" x1="47.1625" y1="34.295" x2="268.924" y2="303.962" gradientUnits="userSpaceOnUse">
<stop stop-color="#FFD9A0"/>
<stop offset="1" stop-color="#FFF5F1"/>
</linearGradient>
</defs>
</svg>
