<svg width="452" height="679" viewBox="0 0 452 679" fill="none" xmlns="http://www.w3.org/2000/svg">
<path opacity="0.3" fill-rule="evenodd" clip-rule="evenodd" d="M40.7077 519.207C34.7461 533.147 31.4393 548.529 31.4393 564.696C31.4393 627.824 81.8517 679 144.038 679C206.223 679 256.635 627.824 256.635 564.696C256.635 548.529 253.329 533.147 247.366 519.207C267.832 547.807 301.039 566.402 338.525 566.402C400.711 566.402 451.122 515.226 451.122 452.098C451.122 395.717 410.911 348.87 358.014 339.5C410.911 330.13 451.122 283.282 451.122 226.901C451.122 163.775 400.711 112.599 338.525 112.599C301.039 112.599 267.832 131.193 247.366 159.792C253.329 145.853 256.635 130.47 256.635 114.303C256.635 51.1762 206.223 0 144.038 0C81.8517 0 31.4393 51.1762 31.4393 114.303C31.4393 130.47 34.7461 145.853 40.7077 159.792C20.2426 131.193 -12.9639 112.599 -50.4514 112.599C-112.638 112.599 -163.05 163.775 -163.05 226.901C-163.05 283.282 -122.836 330.13 -69.9388 339.5C-122.836 348.87 -163.05 395.717 -163.05 452.098C-163.05 515.226 -112.638 566.402 -50.4514 566.402C-12.9639 566.402 20.2426 547.807 40.7077 519.207ZM52.8788 181.412C58.8404 195.352 62.1471 210.734 62.1471 226.901C62.1471 283.282 21.9367 330.13 -30.9608 339.5C21.9367 348.87 62.1471 395.717 62.1471 452.098C62.1471 468.265 58.8404 483.647 52.8788 497.587C73.3438 468.987 106.55 450.392 144.038 450.392C181.522 450.392 214.73 468.987 235.196 497.587C229.232 483.647 225.926 468.265 225.926 452.098C225.926 395.717 266.138 348.87 319.035 339.5C266.138 330.13 225.926 283.282 225.926 226.901C225.926 210.734 229.232 195.352 235.196 181.412C214.73 210.011 181.522 228.609 144.038 228.609C106.55 228.609 73.3438 210.011 52.8788 181.412Z" fill="url(#paint0_linear_387_1745)"/>
<defs>
<linearGradient id="paint0_linear_387_1745" x1="-92.4171" y1="679" x2="376.896" y2="208.185" gradientUnits="userSpaceOnUse">
<stop stop-color="#B0B9FF"/>
<stop offset="1" stop-color="#E7E9FF"/>
</linearGradient>
</defs>
</svg>
