<svg width="283" height="267" viewBox="0 0 283 267" fill="none" xmlns="http://www.w3.org/2000/svg">
<path fill-rule="evenodd" clip-rule="evenodd" d="M239.465 -180H207.536V-38.6293L154.577 -169.706L124.974 -157.745L179.304 -23.2731L76.7501 -125.827L54.1733 -103.25L152.467 -4.95682L25.0859 -60.6106L12.3028 -31.3526L147.086 27.5356H0V59.4646H147.086L12.3028 118.352L25.0859 147.611L152.466 91.957L54.1733 190.25L76.7501 212.826L179.304 110.273L124.974 244.746L154.577 256.706L207.536 125.63V267H239.465V125.63L292.423 256.706L322.025 244.746L267.697 110.273L370.25 212.826L392.826 190.25L294.533 91.957L421.914 147.611L434.696 118.352L299.915 59.4646H447V27.5356H299.912L434.696 -31.3526L421.914 -60.6106L294.533 -4.95682L392.826 -103.25L370.25 -125.827L267.697 -23.2733L322.025 -157.745L292.423 -169.706L239.465 -38.6293V-180Z" fill="url(#paint0_linear_387_1761)" fill-opacity="0.7"/>
<defs>
<linearGradient id="paint0_linear_387_1761" x1="31.29" y1="-121.89" x2="400.065" y2="221.183" gradientUnits="userSpaceOnUse">
<stop stop-color="#FF5C00"/>
<stop offset="1" stop-color="#FFC93F"/>
</linearGradient>
</defs>
</svg>
