<svg width="611" height="716" viewBox="0 0 611 716" fill="none" xmlns="http://www.w3.org/2000/svg">
<path fill-rule="evenodd" clip-rule="evenodd" d="M0 -61C0 153.563 173.937 327.5 388.5 327.5C173.937 327.5 0 501.439 0 716H46.62C46.62 527.185 199.685 374.12 388.5 374.12C577.315 374.12 730.38 527.185 730.38 716H777C777 501.439 603.061 327.5 388.5 327.5C603.061 327.5 777 153.563 777 -61H730.38C730.38 127.815 577.315 280.88 388.5 280.88C199.685 280.88 46.62 127.815 46.62 -61H0ZM93.24 -61C93.24 102.067 225.433 234.26 388.5 234.26C551.569 234.26 683.76 102.067 683.76 -61H637.14C637.14 76.32 525.819 187.64 388.5 187.64C251.18 187.64 139.86 76.32 139.86 -61H93.24ZM186.48 -61C186.48 50.5725 276.927 141.02 388.5 141.02C500.073 141.02 590.52 50.5725 590.52 -61H543.9C543.9 24.8251 474.324 94.4 388.5 94.4C302.675 94.4 233.1 24.8251 233.1 -61H186.48ZM388.5 420.74C551.569 420.74 683.76 552.931 683.76 716H637.14C637.14 578.681 525.819 467.36 388.5 467.36C251.18 467.36 139.86 578.681 139.86 716H93.24C93.24 552.931 225.433 420.74 388.5 420.74ZM388.5 513.98C500.073 513.98 590.52 604.427 590.52 716H543.9C543.9 630.176 474.324 560.6 388.5 560.6C302.675 560.6 233.1 630.176 233.1 716H186.48C186.48 604.427 276.927 513.98 388.5 513.98Z" fill="url(#paint0_linear_387_1753)"/>
<defs>
<linearGradient id="paint0_linear_387_1753" x1="388.5" y1="-61" x2="388.5" y2="716" gradientUnits="userSpaceOnUse">
<stop stop-color="#A7B5FF"/>
<stop offset="1" stop-color="#F3ACFF"/>
</linearGradient>
</defs>
</svg>
