<svg width="353" height="358" viewBox="0 0 353 358" fill="none" xmlns="http://www.w3.org/2000/svg">
<path fill-rule="evenodd" clip-rule="evenodd" d="M137.5 431C256.516 431 353 334.516 353 215.5C353 96.4826 256.516 0 137.5 0C18.4826 0 -78 96.4826 -78 215.5C-78 334.516 18.4826 431 137.5 431ZM137.5 405.14C242.235 405.14 327.14 320.235 327.14 215.5C327.14 110.765 242.235 25.86 137.5 25.86C32.7646 25.86 -52.14 110.765 -52.14 215.5C-52.14 320.235 32.7646 405.14 137.5 405.14ZM137.5 379.28C227.954 379.28 301.28 305.954 301.28 215.5C301.28 125.047 227.954 51.72 137.5 51.72C47.0469 51.72 -26.28 125.047 -26.28 215.5C-26.28 305.954 47.0469 379.28 137.5 379.28ZM137.5 353.42C213.671 353.42 275.42 291.671 275.42 215.5C275.42 139.329 213.671 77.58 137.5 77.58C61.3289 77.58 -0.419998 139.329 -0.419998 215.5C-0.419998 291.671 61.3289 353.42 137.5 353.42ZM249.56 215.5C249.56 277.389 199.389 327.56 137.5 327.56C75.611 327.56 25.44 277.389 25.44 215.5C25.44 153.611 75.611 103.44 137.5 103.44C199.389 103.44 249.56 153.611 249.56 215.5ZM223.7 215.5C223.7 263.106 185.106 301.7 137.5 301.7C89.893 301.7 51.3 263.106 51.3 215.5C51.3 167.893 89.893 129.3 137.5 129.3C185.106 129.3 223.7 167.893 223.7 215.5Z" fill="url(#paint0_linear_387_1743)"/>
<defs>
<linearGradient id="paint0_linear_387_1743" x1="-18.7375" y1="40.945" x2="243.095" y2="376.048" gradientUnits="userSpaceOnUse">
<stop stop-color="#FFD9A0"/>
<stop offset="1" stop-color="#FFF5F1"/>
</linearGradient>
</defs>
</svg>
