<svg width="182" height="182" viewBox="0 0 182 182" fill="none" xmlns="http://www.w3.org/2000/svg">
<path id="Layer 9" d="M3.14312 39.1119C3.55439 39.1143 3.96209 39.0354 4.34283 38.8799C4.72357 38.7244 5.06987 38.4953 5.36187 38.2056L38.2056 5.36187C38.497 5.0705 38.7281 4.72459 38.8858 4.3439C39.0435 3.9632 39.1247 3.55518 39.1247 3.14312C39.1247 2.73106 39.0435 2.32303 38.8858 1.94234C38.7281 1.56165 38.497 1.21574 38.2056 0.92437C37.9142 0.632999 37.5683 0.401872 37.1876 0.244183C36.807 0.0864946 36.3989 0.00533313 35.9869 0.00533313C35.1547 0.00533313 34.3566 0.335921 33.7681 0.92437L0.92437 33.7681C0.631468 34.0586 0.398986 34.4043 0.240334 34.7851C0.081682 35.1659 0 35.5743 0 35.9869C0 36.3994 0.081682 36.8079 0.240334 37.1887C0.398986 37.5695 0.631468 37.9151 0.92437 38.2056C1.21637 38.4953 1.56267 38.7244 1.94341 38.8799C2.32415 39.0354 2.73185 39.1143 3.14312 39.1119ZM3.14312 74.6744C3.55439 74.6767 3.96209 74.5979 4.34283 74.4424C4.72357 74.2869 5.06987 74.0577 5.36187 73.7681L73.7681 5.36187C74.0595 5.0705 74.2906 4.72459 74.4483 4.3439C74.606 3.9632 74.6872 3.55518 74.6872 3.14312C74.6872 2.73106 74.606 2.32303 74.4483 1.94234C74.2906 1.56165 74.0595 1.21574 73.7681 0.92437C73.4768 0.632999 73.1308 0.401872 72.7502 0.244183C72.3695 0.0864946 71.9614 0.00533312 71.5494 0.00533313C71.1373 0.00533313 70.7293 0.0864946 70.3486 0.244183C69.9679 0.401872 69.622 0.632999 69.3306 0.92437L0.92437 69.3306C0.631468 69.6211 0.398986 69.9668 0.240334 70.3476C0.081682 70.7284 0 71.1368 0 71.5494C0 71.9619 0.081682 72.3704 0.240334 72.7512C0.398986 73.132 0.631468 73.4776 0.92437 73.7681C1.21637 74.0577 1.56267 74.2869 1.94341 74.4424C2.32415 74.5979 2.73185 74.6767 3.14312 74.6744ZM3.14312 110.174C3.95623 110.213 4.75227 109.933 5.36187 109.393L109.393 5.36187C109.982 4.77342 110.312 3.97531 110.312 3.14312C110.312 2.31093 109.982 1.51282 109.393 0.92437C108.805 0.335921 108.007 0.00533313 107.174 0.00533313C106.342 0.00533313 105.544 0.335921 104.956 0.92437L0.92437 104.831C0.631468 105.121 0.398986 105.467 0.240334 105.848C0.081682 106.228 0 106.637 0 107.049C0 107.462 0.081682 107.87 0.240334 108.251C0.398986 108.632 0.631468 108.978 0.92437 109.268C1.21637 109.558 1.56267 109.787 1.94341 109.942C2.32415 110.098 2.73185 110.177 3.14312 110.174ZM3.14312 145.737C3.55439 145.739 3.96209 145.66 4.34283 145.505C4.72357 145.349 5.06987 145.12 5.36187 144.831L144.831 5.36187C145.122 5.0705 145.353 4.72459 145.511 4.3439C145.668 3.9632 145.75 3.55518 145.75 3.14312C145.75 2.73106 145.668 2.32303 145.511 1.94234C145.353 1.56165 145.122 1.21574 144.831 0.92437C144.539 0.632999 144.193 0.401872 143.813 0.244183C143.432 0.0864946 143.024 0.00533311 142.612 0.00533313C142.2 0.00533314 141.792 0.0864946 141.411 0.244183C141.03 0.401872 140.684 0.632999 140.393 0.92437L0.92437 140.393C0.631468 140.684 0.398986 141.029 0.240334 141.41C0.081682 141.791 0 142.199 0 142.612C0 143.024 0.081682 143.433 0.240334 143.814C0.398986 144.194 0.631468 144.54 0.92437 144.831C1.21637 145.12 1.56267 145.349 1.94341 145.505C2.32415 145.66 2.73185 145.739 3.14312 145.737ZM180.362 0.92437C180.071 0.631468 179.726 0.398986 179.345 0.240334C178.964 0.081682 178.556 0 178.143 0C177.731 0 177.322 0.081682 176.941 0.240334C176.561 0.398986 176.215 0.631468 175.924 0.92437L0.92437 175.924C0.631468 176.215 0.398986 176.561 0.240334 176.941C0.081682 177.322 0 177.731 0 178.143C0 178.556 0.081682 178.964 0.240334 179.345C0.398986 179.726 0.631468 180.071 0.92437 180.362C1.21488 180.655 1.56051 180.887 1.94132 181.046C2.32213 181.205 2.73058 181.286 3.14312 181.286C3.55566 181.286 3.96411 181.205 4.34492 181.046C4.72573 180.887 5.07136 180.655 5.36187 180.362L180.362 5.36187C180.655 5.07136 180.887 4.72573 181.046 4.34492C181.205 3.96411 181.286 3.55566 181.286 3.14312C181.286 2.73058 181.205 2.32213 181.046 1.94132C180.887 1.56051 180.655 1.21488 180.362 0.92437ZM175.924 36.4556L36.4556 175.924C36.1627 176.215 35.9302 176.561 35.7716 176.941C35.6129 177.322 35.5312 177.731 35.5312 178.143C35.5312 178.556 35.6129 178.964 35.7716 179.345C35.9302 179.726 36.1627 180.071 36.4556 180.362C36.7461 180.655 37.0918 180.887 37.4726 181.046C37.8534 181.205 38.2618 181.286 38.6744 181.286C39.0869 181.286 39.4954 181.205 39.8762 181.046C40.257 180.887 40.6026 180.655 40.8931 180.362L180.362 40.8931C180.95 40.3047 181.281 39.5066 181.281 38.6744C181.281 37.8422 180.95 37.0441 180.362 36.4556C179.773 35.8672 178.975 35.5366 178.143 35.5366C177.311 35.5366 176.513 35.8672 175.924 36.4556ZM175.924 71.8931L71.8931 175.924C71.6002 176.215 71.3677 176.561 71.2091 176.941C71.0504 177.322 70.9688 177.731 70.9688 178.143C70.9688 178.556 71.0504 178.964 71.2091 179.345C71.3677 179.726 71.6002 180.071 71.8931 180.362C72.1836 180.655 72.5293 180.887 72.9101 181.046C73.2909 181.205 73.6993 181.286 74.1119 181.286C74.5244 181.286 74.9329 181.205 75.3137 181.046C75.6945 180.887 76.0401 180.655 76.3306 180.362L180.362 76.4556C180.967 75.8672 181.313 75.0625 181.325 74.2186C181.337 73.3746 181.013 72.5606 180.424 71.9556C179.836 71.3506 179.031 71.0041 178.187 70.9924C177.343 70.9807 176.529 71.3047 175.924 71.8931ZM175.924 107.518L107.518 175.924C107.225 176.215 106.993 176.561 106.834 176.941C106.675 177.322 106.594 177.731 106.594 178.143C106.594 178.556 106.675 178.964 106.834 179.345C106.993 179.726 107.225 180.071 107.518 180.362C107.809 180.655 108.154 180.887 108.535 181.046C108.916 181.205 109.324 181.286 109.737 181.286C110.149 181.286 110.558 181.205 110.939 181.046C111.319 180.887 111.665 180.655 111.956 180.362L180.362 111.956C180.95 111.367 181.281 110.569 181.281 109.737C181.281 108.905 180.95 108.107 180.362 107.518C179.773 106.93 178.975 106.599 178.143 106.599C177.311 106.599 176.513 106.93 175.924 107.518ZM175.924 143.081L143.081 175.924C142.788 176.215 142.555 176.561 142.397 176.941C142.238 177.322 142.156 177.731 142.156 178.143C142.156 178.556 142.238 178.964 142.397 179.345C142.555 179.726 142.788 180.071 143.081 180.362C143.371 180.655 143.717 180.887 144.098 181.046C144.478 181.205 144.887 181.286 145.299 181.286C145.712 181.286 146.12 181.205 146.501 181.046C146.882 180.887 147.228 180.655 147.518 180.362L180.362 147.518C180.95 146.93 181.281 146.132 181.281 145.299C181.281 144.467 180.95 143.669 180.362 143.081C179.773 142.492 178.975 142.162 178.143 142.162C177.311 142.162 176.513 142.492 175.924 143.081Z" fill="white"/>
</svg>
