<svg width="110" height="204" viewBox="0 0 110 204" fill="none" xmlns="http://www.w3.org/2000/svg">
<path id="Vector" d="M3.38711 202C3.74308 202 4.09904 201.864 4.37209 201.592L29.5531 176.414C29.8137 176.153 29.96 175.799 29.96 175.431C29.96 175.062 29.8137 174.708 29.5531 174.447L6.35794 151.253L30.5689 127.041C31.108 126.503 31.108 125.618 30.5689 125.075L7.46505 101.978L31.7927 77.6504C32.0531 77.3894 32.1993 77.0357 32.1993 76.6669C32.1993 76.2982 32.0531 75.9445 31.7927 75.6835L8.60045 52.4888L32.8114 28.2783C33.0716 28.0171 33.2177 27.6635 33.2177 27.2948C33.2177 26.9262 33.0716 26.5725 32.8114 26.3113L8.90677 2.40772C8.77771 2.27849 8.62444 2.17597 8.45573 2.10602C8.28702 2.03607 8.10617 2.00007 7.92353 2.00007C7.74089 2.00007 7.56004 2.03607 7.39133 2.10602C7.22262 2.17597 7.06935 2.27849 6.94029 2.40772C6.6799 2.66869 6.53366 3.0223 6.53366 3.39096C6.53366 3.75962 6.6799 4.11323 6.94029 4.3742L29.8604 27.2933L5.66339 51.4889C5.40348 51.7501 5.25758 52.1036 5.25758 52.4721C5.25758 52.8406 5.40348 53.1941 5.66339 53.4554C5.70311 53.4951 5.75027 53.5085 5.79098 53.5398C5.83864 53.6063 5.86694 53.6813 5.92552 53.7394L28.8452 76.662L4.64912 100.858C4.30358 101.203 4.2033 101.678 4.29415 102.121C4.28902 102.308 4.32193 102.495 4.39088 102.669C4.45983 102.843 4.56339 103.001 4.69529 103.134L27.6154 126.062L3.41839 150.251C2.87973 150.796 2.87973 151.681 3.41839 152.219C3.45811 152.262 3.50279 152.276 3.54449 152.3C3.59116 152.365 3.61648 152.441 3.68003 152.501L26.5997 175.419L2.4066 199.61C1.86447 200.154 1.86447 201.042 2.4066 201.577C2.67122 201.868 3.03115 202 3.38711 202ZM40.9315 202C41.1143 202 41.2953 201.964 41.4641 201.894C41.633 201.824 41.7864 201.721 41.9155 201.592L67.095 176.414C67.3534 176.152 67.4983 175.799 67.4983 175.431C67.4983 175.062 67.3534 174.709 67.095 174.447L43.9043 151.253L68.1172 127.041C68.6524 126.503 68.6524 125.618 68.1172 125.075L45.0114 101.978L69.3415 77.6504C69.601 77.3889 69.7466 77.0354 69.7466 76.6669C69.7466 76.2985 69.601 75.945 69.3415 75.6835L46.1493 52.4918L70.3613 28.2808C70.6219 28.02 70.7683 27.6663 70.7683 27.2976C70.7683 26.9288 70.6219 26.5752 70.3613 26.3143L46.4552 2.41318C46.326 2.28406 46.1727 2.18163 46.004 2.11175C45.8353 2.04187 45.6545 2.00591 45.4719 2.00591C45.2893 2.00591 45.1085 2.04187 44.9398 2.11175C44.7711 2.18163 44.6178 2.28406 44.4887 2.41318C44.3595 2.5423 44.2571 2.69559 44.1872 2.8643C44.1174 3.033 44.0814 3.21382 44.0814 3.39642C44.0814 3.57903 44.1174 3.75984 44.1872 3.92855C44.2571 4.09725 44.3595 4.25054 44.4887 4.37966L67.4078 27.2988L43.2147 51.4949C42.9543 51.7558 42.8081 52.1094 42.8081 52.4781C42.8081 52.8468 42.9543 53.2004 43.2147 53.4613C43.2515 53.4981 43.2947 53.5115 43.3369 53.5428C43.3845 53.6093 43.4094 53.6867 43.4729 53.7453L66.395 76.6684L42.2 100.864C41.8579 101.207 41.7571 101.68 41.846 102.122C41.8399 102.311 41.8723 102.499 41.941 102.674C42.0098 102.85 42.1136 103.01 42.2461 103.145L65.1747 126.07L40.9643 150.258C40.7054 150.52 40.5603 150.874 40.5603 151.242C40.5603 151.61 40.7054 151.964 40.9643 152.225C41.004 152.263 41.0487 152.283 41.0874 152.301C41.1375 152.366 41.1629 152.448 41.2264 152.502L64.1451 175.426L39.9505 199.617C39.8213 199.746 39.7188 199.899 39.6488 200.068C39.5789 200.237 39.5429 200.418 39.5429 200.6C39.5429 200.783 39.5789 200.964 39.6488 201.133C39.7188 201.301 39.8213 201.455 39.9505 201.584C40.2151 201.868 40.5711 202 40.9315 202ZM78.4774 202C78.6604 202.001 78.8417 201.965 79.0108 201.895C79.1798 201.825 79.3332 201.722 79.4619 201.592L104.645 176.414C104.906 176.153 105.052 175.799 105.052 175.431C105.052 175.062 104.906 174.708 104.645 174.447L81.4507 151.253L105.661 127.041C105.79 126.912 105.892 126.759 105.962 126.59C106.032 126.422 106.068 126.241 106.068 126.058C106.068 125.876 106.032 125.695 105.962 125.526C105.892 125.357 105.79 125.204 105.661 125.075L82.5593 101.978L106.889 77.6504C107.145 77.3868 107.288 77.0341 107.288 76.6669C107.288 76.2998 107.145 75.9471 106.889 75.6835L83.6888 52.4888L107.901 28.2783C108.16 28.0167 108.306 27.6632 108.306 27.2948C108.306 26.9265 108.16 26.573 107.901 26.3113L83.9921 2.40772C83.449 1.86409 82.5608 1.86409 82.0256 2.40772C81.765 2.66857 81.6186 3.02222 81.6186 3.39096C81.6186 3.7597 81.765 4.11336 82.0256 4.3742L104.94 27.2933L80.7482 51.4889C80.619 51.618 80.5166 51.7713 80.4467 51.94C80.3768 52.1087 80.3408 52.2895 80.3408 52.4721C80.3408 52.6548 80.3768 52.8356 80.4467 53.0043C80.5166 53.173 80.619 53.3263 80.7482 53.4554C80.7874 53.4951 80.8272 53.5085 80.8788 53.5398C80.9329 53.6063 80.9478 53.6813 81.0104 53.7394L103.933 76.662L79.733 100.858C79.3904 101.203 79.2981 101.678 79.3805 102.121C79.3754 102.309 79.4088 102.495 79.4786 102.67C79.5485 102.844 79.6533 103.002 79.7866 103.134L102.71 126.062L78.5112 150.251C77.9735 150.796 77.9735 151.681 78.5112 152.219C78.5484 152.262 78.5926 152.276 78.6348 152.3C78.6854 152.365 78.7013 152.441 78.7708 152.501L101.694 175.419L77.5009 199.61C76.9563 200.154 76.9563 201.042 77.5009 201.577C77.6245 201.713 77.7755 201.82 77.9438 201.893C78.1121 201.966 78.294 202.003 78.4774 202Z" fill="white" stroke="white" stroke-width="3"/>
</svg>
