<svg width="49" height="49" viewBox="0 0 49 49" fill="none" xmlns="http://www.w3.org/2000/svg">
<path d="M11 15.5C11 11.9196 12.4223 8.4858 14.9541 5.95406C17.4858 3.42232 20.9196 2 24.5 2C28.0804 2 31.5142 3.42232 34.0459 5.95406C36.5777 8.4858 38 11.9196 38 15.5C38 31.25 44.75 35.75 44.75 35.75H4.25C4.25 35.75 11 31.25 11 15.5Z" stroke="black" stroke-width="3" stroke-linecap="round" stroke-linejoin="round"/>
<path d="M20.6748 44.75C21.0514 45.435 21.6051 46.0063 22.2779 46.4042C22.9508 46.8021 23.7181 47.012 24.4998 47.012C25.2815 47.012 26.0489 46.8021 26.7217 46.4042C27.3945 46.0063 27.9482 45.435 28.3248 44.75" stroke="black" stroke-width="3" stroke-linecap="round" stroke-linejoin="round"/>
<path d="M6.5 2C3.8 5.825 2 10.325 2 15.5" stroke="black" stroke-width="3" stroke-linecap="round" stroke-linejoin="round"/>
<path d="M47 15.5C47 10.325 45.2 5.825 42.5 2" stroke="black" stroke-width="3" stroke-linecap="round" stroke-linejoin="round"/>
</svg>
