<svg width="75" height="86" viewBox="0 0 75 86" fill="none" xmlns="http://www.w3.org/2000/svg">
<path d="M26.8857 52.2641C27.3476 57.2023 29.5082 61.8274 32.999 65.3507C36.4898 68.874 41.0947 71.0772 46.0284 71.5848C50.9622 72.0923 55.9192 70.8727 60.0542 68.1339C64.1892 65.3951 67.2461 61.3067 68.7036 56.5659C53.7822 57.0463 40.7143 46.0123 26.8857 52.2641Z" fill="#D0D7DF"/>
<path d="M48.2147 28.8571C42.5315 28.8571 37.0811 31.1148 33.0624 35.1334C29.0438 39.152 26.7861 44.6025 26.7861 50.2857C26.7861 50.9535 26.8254 51.6125 26.8861 52.2643C40.7165 46.0143 53.7826 57.0464 68.704 56.566C69.6863 53.3617 69.9032 49.9716 69.3374 46.6681C68.7716 43.3647 67.4388 40.24 65.4461 37.5452C63.4535 34.8504 60.8565 32.6605 57.8638 31.1516C54.8711 29.6427 51.5662 28.8568 48.2147 28.8571Z" fill="#D0D7DF"/>
<path d="M30.3945 51.0285C30.5599 55.1518 32.1502 59.0902 34.8943 62.1722C37.6385 65.2542 41.3667 67.2891 45.4433 67.9299C49.5199 68.5707 53.6925 67.7778 57.2499 65.6864C60.8073 63.5949 63.5293 60.3344 64.9517 56.4607C52.807 55.4089 41.7856 48.1071 30.3945 51.0285Z" fill="#49AAEE"/>
<path d="M63.4157 56.2822C63.4157 56.2822 63.4336 56.3001 63.4157 56.3001L63.0586 56.2465C63.1766 56.2673 63.296 56.2792 63.4157 56.2822Z" fill="#D04159"/>
<path d="M53.5717 16.3571H42.8574V30.6428H53.5717V16.3571Z" fill="#D0D7DF"/>
<path d="M55.3576 12.7856H41.0718C40.0856 12.7856 39.2861 13.5851 39.2861 14.5714V16.3571C39.2861 17.3433 40.0856 18.1428 41.0718 18.1428H55.3576C56.3438 18.1428 57.1433 17.3433 57.1433 16.3571V14.5714C57.1433 13.5851 56.3438 12.7856 55.3576 12.7856Z" fill="#D0D7DF"/>
<path d="M8.92829 0.285645H10.714C11.1876 0.285645 11.6418 0.473782 11.9767 0.808668C12.3116 1.14355 12.4997 1.59776 12.4997 2.07136V78.8571H7.14258V2.07136C7.14258 1.59776 7.33072 1.14355 7.6656 0.808668C8.00049 0.473782 8.45469 0.285645 8.92829 0.285645Z" fill="#768BA0"/>
<path d="M55.357 18.1428H5.357C4.37078 18.1428 3.57129 18.9423 3.57129 19.9285V21.7143C3.57129 22.7005 4.37078 23.5 5.357 23.5H55.357C56.3432 23.5 57.1427 22.7005 57.1427 21.7143V19.9285C57.1427 18.9423 56.3432 18.1428 55.357 18.1428Z" fill="#4C6681"/>
<path d="M73.2143 78.8571H1.78571C0.799491 78.8571 0 79.6566 0 80.6428V84.2143C0 85.2005 0.799491 86 1.78571 86H73.2143C74.2005 86 75 85.2005 75 84.2143V80.6428C75 79.6566 74.2005 78.8571 73.2143 78.8571Z" fill="#4C6681"/>
</svg>
