<svg width="79" height="79" viewBox="0 0 79 79" fill="none" xmlns="http://www.w3.org/2000/svg">
<g clip-path="url(#clip0_174_2893)">
<path d="M25.5129 16.432C25.2691 16.6855 25.0702 16.9786 24.9248 17.2988L24.9072 17.2812L0.294313 72.7261L0.318452 72.7502C-0.137993 73.6346 0.625674 75.434 2.19031 77.0009C3.75495 78.5655 5.5544 79.3292 6.43876 78.8727L6.4607 78.8947L61.9055 54.2796L61.888 54.2598C62.2106 54.1062 62.5068 53.9197 62.7548 53.6695C66.1825 50.2418 60.624 39.1269 50.343 28.8438C40.0576 18.5606 28.9428 13.0043 25.5129 16.432Z" fill="#DD2E44"/>
<path d="M28.528 26.3333L0.913146 71.3326L0.294313 72.7261L0.318452 72.7502C-0.137993 73.6346 0.625674 75.434 2.19031 77.0009C2.69942 77.51 3.22829 77.8962 3.74617 78.2232L37.3058 37.3056L28.528 26.3333Z" fill="#EA596E"/>
<path d="M50.4987 28.6726C60.7467 38.925 66.4369 49.8534 63.2023 53.0836C59.9699 56.3182 49.0416 50.6302 38.7869 40.3822C28.5367 30.1297 22.8487 19.197 26.0811 15.9646C29.3157 12.7322 40.244 18.4202 50.4987 28.6726Z" fill="#A0041E"/>
<path d="M40.7947 29.8642C40.5709 30.0457 40.3133 30.1809 40.0367 30.2619C39.7602 30.3429 39.4703 30.3681 39.184 30.336C37.2792 30.1297 35.6772 29.467 34.5559 28.4203C33.3687 27.3121 32.7828 25.8242 32.943 24.3342C33.2239 21.7184 35.8484 19.3177 40.3229 19.8005C42.0631 19.987 42.8399 19.4274 42.8662 19.1597C42.897 18.8942 42.2584 18.181 40.5182 17.9923C38.6134 17.786 37.0115 17.1233 35.8879 16.0765C34.7007 14.9683 34.1126 13.4805 34.275 11.9905C34.5603 9.37467 37.1826 6.97395 41.6527 7.45892C42.9211 7.59498 43.5904 7.33384 43.8735 7.16487C44.0995 7.02662 44.1895 6.89495 44.1983 6.81815C44.2246 6.55262 43.5948 5.83943 41.8502 5.6507C41.5636 5.6201 41.2858 5.53319 41.0328 5.39498C40.7798 5.25677 40.5566 5.06997 40.3759 4.84529C40.1953 4.62062 40.0608 4.36249 39.9801 4.08572C39.8995 3.80894 39.8743 3.51897 39.9059 3.23243C39.9363 2.94586 40.0229 2.66812 40.1609 2.41514C40.2989 2.16216 40.4855 1.93893 40.71 1.75827C40.9345 1.5776 41.1925 1.44307 41.4691 1.3624C41.7458 1.28172 42.0356 1.25649 42.322 1.28815C46.7921 1.76873 48.8461 4.67198 48.563 7.28995C48.2777 9.91012 45.6554 12.3065 41.1809 11.8259C39.9125 11.6876 39.2498 11.951 38.9645 12.1199C38.7385 12.256 38.6463 12.3898 38.6376 12.4645C38.609 12.7322 39.2432 13.4432 40.9878 13.6319C45.4579 14.1147 47.5119 17.0157 47.2288 19.6337C46.9457 22.2495 44.3234 24.6502 39.8511 24.1652C38.5827 24.0292 37.9156 24.2925 37.6303 24.4593C37.4021 24.5997 37.3143 24.7314 37.3055 24.806C37.277 25.0715 37.9112 25.7847 39.6536 25.9735C40.0851 26.02 40.493 26.1935 40.8259 26.4719C41.1588 26.7503 41.4017 27.1212 41.5239 27.5376C41.646 27.9541 41.6419 28.3974 41.5121 28.8115C41.3823 29.2256 41.1327 29.592 40.7947 29.8642Z" fill="#AA8DD8"/>
<path d="M67.2842 50.1584C71.6138 48.9361 74.6004 50.8672 75.3114 53.4018C76.0224 55.9342 74.4819 59.1403 70.1545 60.3582C68.4648 60.8322 67.9579 61.6398 68.0259 61.8965C68.1005 62.1554 68.9585 62.5812 70.6439 62.105C74.9713 60.8871 77.9579 62.8182 78.6689 65.3506C79.3843 67.8851 77.8395 71.0868 73.5098 72.3069C71.8223 72.781 71.3132 73.5907 71.3878 73.8475C71.4602 74.1042 72.316 74.5299 74.0036 74.0559C74.2835 73.9694 74.578 73.9398 74.8696 73.9689C75.1612 73.998 75.444 74.0852 75.7014 74.2253C75.9587 74.3655 76.1854 74.5558 76.368 74.785C76.5506 75.0142 76.6854 75.2776 76.7646 75.5598C76.8437 75.8419 76.8656 76.1371 76.8288 76.4278C76.7921 76.7185 76.6974 76.9989 76.5505 77.2525C76.4036 77.5061 76.2074 77.7276 75.9735 77.9041C75.7396 78.0807 75.4727 78.2085 75.1886 78.2802C70.8633 79.4981 67.8745 77.5714 67.1591 75.0346C66.4481 72.5023 67.9908 69.3006 72.3226 68.0804C74.0123 67.6043 74.5193 66.7989 74.4446 66.54C74.3744 66.2832 73.5186 65.8553 71.8333 66.3293C67.5014 67.5494 64.517 65.6227 63.8038 63.0837C63.0906 60.5513 64.6333 57.3496 68.9629 56.1273C70.6483 55.6555 71.1552 54.8436 71.085 54.589C71.0103 54.3301 70.1567 53.9043 68.4692 54.3783C68.1871 54.4734 67.8887 54.51 67.592 54.4861C67.2953 54.4621 67.0066 54.3781 66.7435 54.239C66.4803 54.1 66.2482 53.9089 66.0612 53.6773C65.8742 53.4457 65.7363 53.1786 65.6558 52.892C65.5754 52.6055 65.554 52.3055 65.5931 52.0105C65.6322 51.7154 65.7309 51.4314 65.8833 51.1757C66.0356 50.92 66.2383 50.698 66.4792 50.5231C66.72 50.3482 66.9939 50.2241 67.2842 50.1584Z" fill="#77B255"/>
<path d="M50.4749 44.24C50.0204 44.2394 49.5774 44.0978 49.2068 43.8349C48.8362 43.5719 48.5562 43.2005 48.4055 42.7718C48.2548 42.3431 48.2408 41.8782 48.3654 41.4411C48.49 41.0041 48.747 40.6165 49.1011 40.3317C49.5795 39.9477 60.9906 30.9856 77.1176 33.2919C77.4094 33.3249 77.6916 33.4161 77.9474 33.5601C78.2033 33.7041 78.4277 33.898 78.6073 34.1303C78.7868 34.3626 78.918 34.6286 78.9929 34.9125C79.0678 35.1964 79.085 35.4925 79.0434 35.7831C79.0019 36.0738 78.9024 36.3531 78.7509 36.6047C78.5994 36.8562 78.399 37.0748 78.1615 37.2474C77.924 37.4201 77.6543 37.5433 77.3683 37.6098C77.0823 37.6764 76.7859 37.6848 76.4966 37.6347C62.2481 35.6114 51.9473 43.6782 51.8464 43.7594C51.4572 44.0709 50.9734 44.2404 50.4749 44.24Z" fill="#AA8DD8"/>
<path d="M12.6273 35.1111C12.2853 35.1111 11.948 35.0312 11.6423 34.8777C11.3366 34.7242 11.0711 34.5014 10.8669 34.227C10.6626 33.9526 10.5254 33.6343 10.466 33.2974C10.4067 32.9606 10.4269 32.6145 10.525 32.2869C13.0113 24.0072 15.265 10.7945 12.4956 7.34919C12.1862 6.95858 11.7188 6.57456 10.6479 6.65575C8.58954 6.81375 8.78484 11.1566 8.78704 11.2004C8.81491 11.4912 8.78447 11.7845 8.6975 12.0633C8.61053 12.3421 8.46878 12.6008 8.28057 12.8241C8.09235 13.0474 7.86145 13.2309 7.6014 13.3638C7.34134 13.4968 7.05737 13.5765 6.76613 13.5982C6.47489 13.62 6.18223 13.5834 5.90531 13.4906C5.62839 13.3978 5.37278 13.2506 5.15346 13.0578C4.93415 12.8649 4.75554 12.6302 4.6281 12.3674C4.50066 12.1046 4.42696 11.8191 4.41131 11.5274C4.18529 8.50128 5.1267 2.67283 10.3188 2.28003C12.6361 2.10447 14.5606 2.90983 15.919 4.59956C21.122 11.0754 15.84 29.8488 14.7296 33.5487C14.5937 34.0005 14.3158 34.3965 13.9371 34.6779C13.5584 34.9594 13.0991 35.1113 12.6273 35.1111Z" fill="#77B255"/>
<path d="M55.9587 24.1389C57.7766 24.1389 59.2503 22.6652 59.2503 20.8472C59.2503 19.0293 57.7766 17.5556 55.9587 17.5556C54.1407 17.5556 52.667 19.0293 52.667 20.8472C52.667 22.6652 54.1407 24.1389 55.9587 24.1389Z" fill="#5C913B"/>
<path d="M4.38889 43.8889C6.81281 43.8889 8.77778 41.9239 8.77778 39.5C8.77778 37.0761 6.81281 35.1111 4.38889 35.1111C1.96497 35.1111 0 37.0761 0 39.5C0 41.9239 1.96497 43.8889 4.38889 43.8889Z" fill="#9266CC"/>
<path d="M71.319 46.0833C73.1369 46.0833 74.6107 44.6096 74.6107 42.7917C74.6107 40.9737 73.1369 39.5 71.319 39.5C69.5011 39.5 68.0273 40.9737 68.0273 42.7917C68.0273 44.6096 69.5011 46.0833 71.319 46.0833Z" fill="#5C913B"/>
<path d="M51.569 72.4167C53.3869 72.4167 54.8607 70.9429 54.8607 69.125C54.8607 67.3071 53.3869 65.8333 51.569 65.8333C49.7511 65.8333 48.2773 67.3071 48.2773 69.125C48.2773 70.9429 49.7511 72.4167 51.569 72.4167Z" fill="#5C913B"/>
<path d="M61.4446 13.1667C63.8685 13.1667 65.8334 11.2017 65.8334 8.77777C65.8334 6.35386 63.8685 4.38889 61.4446 4.38889C59.0206 4.38889 57.0557 6.35386 57.0557 8.77777C57.0557 11.2017 59.0206 13.1667 61.4446 13.1667Z" fill="#FFCC4D"/>
<path d="M71.319 21.9444C73.1369 21.9444 74.6107 20.4707 74.6107 18.6528C74.6107 16.8348 73.1369 15.3611 71.319 15.3611C69.5011 15.3611 68.0273 16.8348 68.0273 18.6528C68.0273 20.4707 69.5011 21.9444 71.319 21.9444Z" fill="#FFCC4D"/>
<path d="M64.736 30.7222C66.5539 30.7222 68.0277 29.2485 68.0277 27.4306C68.0277 25.6126 66.5539 24.1389 64.736 24.1389C62.9181 24.1389 61.4443 25.6126 61.4443 27.4306C61.4443 29.2485 62.9181 30.7222 64.736 30.7222Z" fill="#FFCC4D"/>
<path d="M16.4587 54.8611C18.2766 54.8611 19.7503 53.3874 19.7503 51.5694C19.7503 49.7515 18.2766 48.2778 16.4587 48.2778C14.6407 48.2778 13.167 49.7515 13.167 51.5694C13.167 53.3874 14.6407 54.8611 16.4587 54.8611Z" fill="#FFCC4D"/>
</g>
<defs>
<clipPath id="clip0_174_2893">
<rect width="79" height="79" fill="white"/>
</clipPath>
</defs>
</svg>
