<svg width="85" height="75" viewBox="0 0 85 75" fill="none" xmlns="http://www.w3.org/2000/svg">
<path d="M79.6878 7.08334H5.31283C4.33482 7.08334 3.54199 7.87617 3.54199 8.85418C3.54199 9.83218 4.33482 10.625 5.31283 10.625H79.6878C80.6658 10.625 81.4587 9.83218 81.4587 8.85418C81.4587 7.87617 80.6658 7.08334 79.6878 7.08334Z" fill="#B06550"/>
<path d="M79.6878 54.8959H5.31283C4.33482 54.8959 3.54199 55.6887 3.54199 56.6667C3.54199 57.6447 4.33482 58.4375 5.31283 58.4375H79.6878C80.6658 58.4375 81.4587 57.6447 81.4587 56.6667C81.4587 55.6887 80.6658 54.8959 79.6878 54.8959Z" fill="#B06550"/>
<path d="M79.6878 31.875H5.31283C4.33482 31.875 3.54199 32.6678 3.54199 33.6458C3.54199 34.6238 4.33482 35.4167 5.31283 35.4167H79.6878C80.6658 35.4167 81.4587 34.6238 81.4587 33.6458C81.4587 32.6678 80.6658 31.875 79.6878 31.875Z" fill="#B06550"/>
<path d="M83.2292 70.8333H1.77083C0.792829 70.8333 0 71.6262 0 72.6042C0 73.5822 0.792829 74.375 1.77083 74.375H83.2292C84.2072 74.375 85 73.5822 85 72.6042C85 71.6262 84.2072 70.8333 83.2292 70.8333Z" fill="#4C5665"/>
<path d="M83.2292 69.0625H1.77083C0.792829 69.0625 0 69.8553 0 70.8333V72.6042C0 73.5822 0.792829 74.375 1.77083 74.375H83.2292C84.2072 74.375 85 73.5822 85 72.6042V70.8333C85 69.8553 84.2072 69.0625 83.2292 69.0625Z" fill="#C8785C"/>
<path d="M11.5107 0C12.2152 0 12.8909 0.279854 13.389 0.777998C13.8871 1.27614 14.167 1.95177 14.167 2.65625V69.0625H8.85449V2.65625C8.85449 1.95177 9.13435 1.27614 9.63249 0.777998C10.1306 0.279854 10.8063 0 11.5107 0Z" fill="#C8785C"/>
<path d="M73.4893 0C74.1937 0 74.8694 0.279854 75.3675 0.777998C75.8657 1.27614 76.1455 1.95177 76.1455 2.65625V69.0625H70.833V2.65625C70.833 1.95177 71.1129 1.27614 71.611 0.777998C72.1091 0.279854 72.7848 0 73.4893 0Z" fill="#C8785C"/>
<path d="M73.4893 0C74.1937 0 74.8694 0.279854 75.3675 0.777998C75.8657 1.27614 76.1455 1.95177 76.1455 2.65625V69.0625H70.833V2.65625C70.833 1.95177 71.1129 1.27614 71.611 0.777998C72.1091 0.279854 72.7848 0 73.4893 0Z" fill="#C8785C"/>
<path d="M28.3333 5.3125C28.3333 3.35649 26.7477 1.77084 24.7917 1.77084C22.8357 1.77084 21.25 3.35649 21.25 5.3125V12.3958C21.25 14.3518 22.8357 15.9375 24.7917 15.9375C26.7477 15.9375 28.3333 14.3518 28.3333 12.3958V5.3125Z" fill="#FACE53"/>
<path d="M28.3333 5.3125C28.3333 3.35649 26.7477 1.77084 24.7917 1.77084C22.8357 1.77084 21.25 3.35649 21.25 5.3125V12.3958C21.25 14.3518 22.8357 15.9375 24.7917 15.9375C26.7477 15.9375 28.3333 14.3518 28.3333 12.3958V5.3125Z" fill="#FED049"/>
<path d="M38.9583 5.3125C38.9583 3.35649 37.3727 1.77084 35.4167 1.77084C33.4607 1.77084 31.875 3.35649 31.875 5.3125V12.3958C31.875 14.3518 33.4607 15.9375 35.4167 15.9375C37.3727 15.9375 38.9583 14.3518 38.9583 12.3958V5.3125Z" fill="#49AAEE"/>
<path d="M51.3538 30.1042C51.3538 28.1481 49.7682 26.5625 47.8122 26.5625C45.8562 26.5625 44.2705 28.1481 44.2705 30.1042V37.1875C44.2705 39.1435 45.8562 40.7292 47.8122 40.7292C49.7682 40.7292 51.3538 39.1435 51.3538 37.1875V30.1042Z" fill="#A4B0C0"/>
<path d="M40.7288 30.1042C40.7288 28.1481 39.1432 26.5625 37.1872 26.5625C35.2312 26.5625 33.6455 28.1481 33.6455 30.1042V37.1875C33.6455 39.1435 35.2312 40.7292 37.1872 40.7292C39.1432 40.7292 40.7288 39.1435 40.7288 37.1875V30.1042Z" fill="#FED049"/>
<path d="M61.9788 30.1042C61.9788 28.1481 60.3932 26.5625 58.4372 26.5625C56.4812 26.5625 54.8955 28.1481 54.8955 30.1042V37.1875C54.8955 39.1435 56.4812 40.7292 58.4372 40.7292C60.3932 40.7292 61.9788 39.1435 61.9788 37.1875V30.1042Z" fill="#49AAEE"/>
<path d="M40.7288 53.125C40.7288 51.169 39.1432 49.5833 37.1872 49.5833C35.2312 49.5833 33.6455 51.169 33.6455 53.125V60.2083C33.6455 62.1644 35.2312 63.75 37.1872 63.75C39.1432 63.75 40.7288 62.1644 40.7288 60.2083V53.125Z" fill="#FED049"/>
<path d="M30.1038 53.125C30.1038 51.169 28.5182 49.5833 26.5622 49.5833C24.6062 49.5833 23.0205 51.169 23.0205 53.125V60.2083C23.0205 62.1644 24.6062 63.75 26.5622 63.75C28.5182 63.75 30.1038 62.1644 30.1038 60.2083V53.125Z" fill="#49AAEE"/>
<path d="M51.3538 53.125C51.3538 51.169 49.7682 49.5833 47.8122 49.5833C45.8562 49.5833 44.2705 51.169 44.2705 53.125V60.2083C44.2705 62.1644 45.8562 63.75 47.8122 63.75C49.7682 63.75 51.3538 62.1644 51.3538 60.2083V53.125Z" fill="#D0D7DF"/>
<path d="M15.9378 7.08334H14.167V10.625H15.9378V7.08334Z" fill="#9C5946"/>
<path d="M15.9378 31.875H14.167V35.4167H15.9378V31.875Z" fill="#9C5946"/>
<path d="M15.9378 54.8959H14.167V58.4375H15.9378V54.8959Z" fill="#9C5946"/>
</svg>
