<svg width="60" height="85" viewBox="0 0 60 85" fill="none" xmlns="http://www.w3.org/2000/svg">
<path d="M21.1624 21.1619C15.6711 21.1564 10.2482 22.3796 5.29102 24.7418V30.7376C10.1052 27.9207 15.5846 26.4413 21.1624 26.4523C27.2939 26.4434 33.2965 28.2124 38.4433 31.545C43.5901 34.8777 47.6602 39.6311 50.1609 45.2295C52.6615 50.8279 53.4853 57.0313 52.5327 63.0884C51.58 69.1455 48.8916 74.7964 44.7931 79.3569H51.5296C53.1865 77.0108 54.5487 74.47 55.5856 71.7915C57.318 67.4683 58.204 62.8525 58.1956 58.1951C58.1848 48.3766 54.2797 38.9633 47.3369 32.0205C40.3942 25.0778 30.9809 21.1726 21.1624 21.1619Z" fill="#4C5665"/>
<path d="M58.195 79.3569H1.76349C0.789539 79.3569 0 80.1464 0 81.1204V82.8839C0 83.8578 0.789539 84.6474 1.76349 84.6474H58.195C59.169 84.6474 59.9585 83.8578 59.9585 82.8839V81.1204C59.9585 80.1464 59.169 79.3569 58.195 79.3569Z" fill="#4C5665"/>
<path d="M17.6354 10.5808H8.81799C6.87009 10.5808 5.29102 12.1599 5.29102 14.1078V47.614C5.29102 49.5619 6.87009 51.141 8.81799 51.141H17.6354C19.5833 51.141 21.1624 49.5619 21.1624 47.614V14.1078C21.1624 12.1599 19.5833 10.5808 17.6354 10.5808Z" fill="#BEC3C7"/>
<path d="M17.6354 10.5808H8.81799C6.87009 10.5808 5.29102 12.1599 5.29102 14.1078V47.614C5.29102 49.5619 6.87009 51.141 8.81799 51.141H17.6354C19.5833 51.141 21.1624 49.5619 21.1624 47.614V14.1078C21.1624 12.1599 19.5833 10.5808 17.6354 10.5808Z" fill="#D0D7DF"/>
<path d="M21.1624 14.1078V47.614C21.1596 48.5486 20.7871 49.4441 20.1263 50.1049C19.4654 50.7657 18.57 51.1382 17.6354 51.141H8.81799C7.88343 51.1382 6.98796 50.7657 6.32712 50.1049C5.66629 49.4441 5.29381 48.5486 5.29102 47.614H12.345C13.2795 47.6112 14.175 47.2388 14.8358 46.5779C15.4966 45.9171 15.8691 45.0216 15.8719 44.0871V10.5808H17.6354C18.57 10.5836 19.4654 10.9561 20.1263 11.617C20.7871 12.2778 21.1596 13.1733 21.1624 14.1078Z" fill="#A4B0C0"/>
<path d="M17.6342 3.52689H12.3438V10.5808H17.6342V3.52689Z" fill="#A4B0C0"/>
<path d="M8.81836 3.52689H12.3453V10.5808H8.81836" fill="#D0D7DF"/>
<path d="M19.3989 0H7.0545C6.08055 0 5.29102 0.789539 5.29102 1.76349C5.29102 2.73743 6.08055 3.52697 7.0545 3.52697H19.3989C20.3728 3.52697 21.1624 2.73743 21.1624 1.76349C21.1624 0.789539 20.3728 0 19.3989 0Z" fill="#768BA0"/>
<path d="M24.6888 67.0125H1.76349C0.789539 67.0125 0 67.802 0 68.7759C0 69.7499 0.789539 70.5394 1.76349 70.5394H24.6888C25.6627 70.5394 26.4523 69.7499 26.4523 68.7759C26.4523 67.802 25.6627 67.0125 24.6888 67.0125Z" fill="#BEC3C7"/>
<path d="M24.6888 67.0125H1.76349C0.789539 67.0125 0 67.802 0 68.7759C0 69.7499 0.789539 70.5394 1.76349 70.5394H24.6888C25.6627 70.5394 26.4523 69.7499 26.4523 68.7759C26.4523 67.802 25.6627 67.0125 24.6888 67.0125Z" fill="#D0D7DF"/>
<path d="M15.8705 70.5393H10.5801V79.3568H15.8705V70.5393Z" fill="#768BA0"/>
<path d="M8.81836 51.1411H17.6358V52.9046C17.6358 53.3723 17.45 53.8208 17.1193 54.1516C16.7886 54.4823 16.34 54.6681 15.8723 54.6681H10.5818C10.1141 54.6681 9.66559 54.4823 9.33487 54.1516C9.00415 53.8208 8.81836 53.3723 8.81836 52.9046V51.1411Z" fill="#4C5665"/>
</svg>
