<svg width="32" height="32" viewBox="0 0 32 32" fill="none" xmlns="http://www.w3.org/2000/svg">
<path fill-rule="evenodd" clip-rule="evenodd" d="M17.5651 8.7712C18.1595 8.23258 18.9383 7.94318 19.7403 7.96292C20.5422 7.98267 21.3058 8.31004 21.8731 8.87727C22.4403 9.44449 22.7677 10.2081 22.7874 11.0101C22.8071 11.812 22.5177 12.5908 21.9791 13.1853C21.9732 13.1918 21.9672 13.1982 21.961 13.2044L14.2032 21.0716C14.195 21.08 14.1865 21.0881 14.1778 21.0959C13.8211 21.4191 13.3538 21.5928 12.8727 21.5809C12.3915 21.5691 11.9333 21.3726 11.593 21.0323C11.2527 20.692 11.0563 20.2338 11.0444 19.7526C11.0326 19.2715 11.2062 18.8042 11.5294 18.4475C11.5351 18.4412 11.5409 18.435 11.5469 18.4289L18.0547 11.8117C18.2968 11.5656 18.6925 11.5623 18.9386 11.8044C19.1847 12.0464 19.188 12.4421 18.9459 12.6882L12.4486 19.2947C12.3454 19.4126 12.2902 19.565 12.294 19.7219C12.298 19.8823 12.3635 20.035 12.4769 20.1484C12.5903 20.2619 12.7431 20.3273 12.9035 20.3313C13.059 20.3351 13.2102 20.2808 13.3276 20.1793L21.061 12.3368C21.3789 11.9813 21.5495 11.5179 21.5378 11.0408C21.5259 10.5597 21.3295 10.1015 20.9892 9.76115C20.6488 9.42082 20.1907 9.22439 19.7095 9.21254C19.2338 9.20083 18.7716 9.37043 18.4165 9.68661L10.6689 17.5435C10.0837 18.1287 9.75488 18.9224 9.75488 19.75C9.75488 20.5776 10.0836 21.3713 10.6688 21.9565C11.254 22.5417 12.0477 22.8704 12.8753 22.8704C13.7029 22.8704 14.4966 22.5417 15.0818 21.9565L21.4964 15.5575C21.7408 15.3137 22.1365 15.3142 22.3803 15.5586C22.6241 15.803 22.6236 16.1987 22.3792 16.4425L15.9657 22.8404C15.1461 23.66 14.0345 24.1204 12.8753 24.1204C11.7162 24.1204 10.6046 23.66 9.78496 22.8404C8.96534 22.0207 8.50488 20.9091 8.50488 19.75C8.50488 18.5916 8.96474 17.4807 9.78334 16.6612L17.5397 8.79552C17.5479 8.78718 17.5564 8.77907 17.5651 8.7712Z" fill="#0E1114"/>
</svg>
