<svg width="33" height="33" viewBox="0 0 33 33" fill="none" xmlns="http://www.w3.org/2000/svg">
<path d="M25.4738 10.7895H28.7369C29.6024 10.7895 30.4324 11.1333 31.0443 11.7452C31.6563 12.3572 32.0001 13.1872 32.0001 14.0526V32L25.4738 25.4737H15.6843C14.8189 25.4737 13.9889 25.1299 13.3769 24.5179C12.7649 23.906 12.4211 23.076 12.4211 22.2105V20.5789" stroke="white" stroke-width="2" stroke-linecap="round" stroke-linejoin="round"/>
<path d="M20.5789 12.4211C20.5789 13.2865 20.2352 14.1165 19.6232 14.7285C19.0112 15.3404 18.1812 15.6842 17.3158 15.6842H7.52632L1 22.2105V4.26316C1 2.46842 2.46842 1 4.26316 1H17.3158C18.1812 1 19.0112 1.3438 19.6232 1.95576C20.2352 2.56772 20.5789 3.39771 20.5789 4.26316V12.4211Z" stroke="white" stroke-width="2" stroke-linecap="round" stroke-linejoin="round"/>
</svg>
