<svg width="32" height="32" viewBox="0 0 32 32" fill="none" xmlns="http://www.w3.org/2000/svg">
<path fill-rule="evenodd" clip-rule="evenodd" d="M16.0001 8.5C14.6194 8.5 13.5001 9.61929 13.5001 11V16C13.5001 17.3807 14.6194 18.5 16.0001 18.5C17.3808 18.5 18.5001 17.3807 18.5001 16V11C18.5001 9.61929 17.3808 8.5 16.0001 8.5ZM12.2501 11C12.2501 8.92893 13.9291 7.25 16.0001 7.25C18.0712 7.25 19.7501 8.92893 19.7501 11V16C19.7501 18.0711 18.0712 19.75 16.0001 19.75C13.9291 19.75 12.2501 18.0711 12.2501 16V11Z" fill="#0E1114"/>
<path fill-rule="evenodd" clip-rule="evenodd" d="M16.0001 21C16.3453 21 16.6251 21.2798 16.6251 21.625V24.125C16.6251 24.4702 16.3453 24.75 16.0001 24.75C15.6549 24.75 15.3751 24.4702 15.3751 24.125V21.625C15.3751 21.2798 15.6549 21 16.0001 21Z" fill="#0E1114"/>
<path fill-rule="evenodd" clip-rule="evenodd" d="M10.3328 16.0043C10.6756 15.9637 10.9864 16.2087 11.027 16.5515C11.1711 17.7692 11.7571 18.8917 12.6737 19.7062C13.5903 20.5207 14.7739 20.9706 16.0001 20.9706C17.2263 20.9706 18.4099 20.5207 19.3265 19.7062C20.2431 18.8917 20.829 17.7692 20.9731 16.5515C21.0137 16.2087 21.3245 15.9637 21.6673 16.0043C22.0101 16.0449 22.2551 16.3557 22.2145 16.6985C22.0343 18.2201 21.3022 19.6228 20.1568 20.6406C19.0114 21.6584 17.5323 22.2206 16.0001 22.2206C14.4678 22.2206 12.9888 21.6584 11.8434 20.6406C10.698 19.6228 9.96579 18.2201 9.78564 16.6985C9.74506 16.3557 9.99005 16.0449 10.3328 16.0043Z" fill="#0E1114"/>
</svg>
