<svg width="447" height="447" viewBox="0 0 447 447" fill="none" xmlns="http://www.w3.org/2000/svg">
<path fill-rule="evenodd" clip-rule="evenodd" d="M239.465 0H207.536V141.371L154.577 10.294L124.974 22.2547L179.304 156.727L76.7501 54.173L54.1733 76.7501L152.467 175.043L25.0859 119.389L12.3028 148.647L147.086 207.536H0V239.465H147.086L12.3028 298.352L25.0859 327.611L152.466 271.957L54.1733 370.25L76.7501 392.826L179.304 290.273L124.974 424.746L154.577 436.706L207.536 305.63V447H239.465V305.63L292.423 436.706L322.025 424.746L267.697 290.273L370.25 392.826L392.826 370.25L294.533 271.957L421.914 327.611L434.696 298.352L299.915 239.465H447V207.536H299.912L434.696 148.647L421.914 119.389L294.533 175.043L392.826 76.7499L370.25 54.173L267.697 156.727L322.025 22.2547L292.423 10.294L239.465 141.371V0Z" fill="url(#paint0_linear_209_1005)"/>
<defs>
<linearGradient id="paint0_linear_209_1005" x1="31.29" y1="58.11" x2="400.065" y2="401.183" gradientUnits="userSpaceOnUse">
<stop stop-color="#FF5C00"/>
<stop offset="1" stop-color="#FFC93F"/>
</linearGradient>
</defs>
</svg>
